<?xml version="1.0" encoding="UTF-8"?>
<svg xmlns="http://www.w3.org/2000/svg" xmlns:xlink="http://www.w3.org/1999/xlink" version="1.1" viewBox="0 0 512 512">
  <defs>
    <style>
      .cls-1 {
        fill: none;
      }

      .cls-2 {
        fill: #ff5154;
      }

      .cls-3 {
        clip-path: url(#clippath-1);
      }

      .cls-4 {
        clip-path: url(#clippath-3);
      }

      .cls-5 {
        clip-path: url(#clippath-4);
      }

      .cls-6 {
        clip-path: url(#clippath-2);
      }

      .cls-7 {
        clip-path: url(#clippath-7);
      }

      .cls-8 {
        clip-path: url(#clippath-6);
      }

      .cls-9 {
        clip-path: url(#clippath-5);
      }

      .cls-10 {
        fill: #d9f9a5;
      }

      .cls-11 {
        fill: #011627;
      }

      .cls-12 {
        clip-path: url(#clippath);
      }
    </style>
    <symbol id="Dice_Map_1" viewBox="0 0 19.1 19.1">
      <circle cx="9.5" cy="9.5" r="9.5"/>
    </symbol>
    <clipPath id="clippath">
      <rect class="cls-1" x="319.8" y="129.4" width="35.1" height="22.6" transform="translate(183.8 472.4) rotate(-87.8)"/>
    </clipPath>
    <clipPath id="clippath-1">
      <rect class="cls-1" x="333.4" y="210.9" width="35.1" height="22.6" transform="translate(115.4 564.4) rotate(-87.8)"/>
    </clipPath>
    <clipPath id="clippath-2">
      <rect class="cls-1" x="391.1" y="322" width="35.1" height="22.6" transform="translate(59.9 728.8) rotate(-87.8)"/>
    </clipPath>
    <clipPath id="clippath-3">
      <rect class="cls-1" x="311.7" y="426.9" width="35.1" height="22.6" transform="translate(-121.3 750.4) rotate(-87.8)"/>
    </clipPath>
    <clipPath id="clippath-4">
      <rect class="cls-1" x="328.1" y="317.2" width="35.1" height="22.6" transform="translate(4.1 661.3) rotate(-87.8)"/>
    </clipPath>
    <clipPath id="clippath-5">
      <rect class="cls-1" x="416.3" y="220.3" width="35.1" height="22.6" transform="translate(185.7 656.2) rotate(-87.8)"/>
    </clipPath>
    <clipPath id="clippath-6">
      <rect class="cls-1" x="262.1" y="274.7" width="35.1" height="22.6" transform="translate(-16.9 554.5) rotate(-87.8)"/>
    </clipPath>
    <clipPath id="clippath-7">
      <rect class="cls-1" x="254.6" y="364.1" width="35.1" height="22.6" transform="translate(-113.5 632.9) rotate(-87.8)"/>
    </clipPath>
  </defs>
  <!-- Generator: Adobe Illustrator 28.7.1, SVG Export Plug-In . SVG Version: 1.2.0 Build 142)  -->
  <g>
    <g id="Layer_1">
      <g id="Layer_1-2" data-name="Layer_1">
        <g id="Layer_1-2">
          <g>
            <path class="cls-2" d="M332.6,17.7c130.7,51.7,194.7,199.5,143,330.2-51.7,130.7-199.5,194.7-330.2,143"/>
            <g>
              <rect class="cls-11" x="319.8" y="129.4" width="35.1" height="22.6" transform="translate(183.8 472.4) rotate(-87.8)"/>
              <g class="cls-12">
                <use width="19.1" height="19.1" transform="translate(325.4 157.9) rotate(2.2) scale(1.2 -1.9)" xlink:href="#Dice_Map_1"/>
              </g>
            </g>
            <g>
              <rect class="cls-11" x="333.4" y="210.9" width="35.1" height="22.6" transform="translate(115.4 564.4) rotate(-87.8)"/>
              <g class="cls-3">
                <use width="19.1" height="19.1" transform="translate(339 239.4) rotate(2.2) scale(1.2 -1.9)" xlink:href="#Dice_Map_1"/>
              </g>
            </g>
            <g>
              <rect class="cls-11" x="391.1" y="322" width="35.1" height="22.6" transform="translate(59.9 728.8) rotate(-87.8)"/>
              <g class="cls-6">
                <use width="19.1" height="19.1" transform="translate(396.7 350.5) rotate(2.2) scale(1.2 -1.9)" xlink:href="#Dice_Map_1"/>
              </g>
            </g>
            <g>
              <rect class="cls-11" x="311.7" y="426.9" width="35.1" height="22.6" transform="translate(-121.3 750.4) rotate(-87.8)"/>
              <g class="cls-4">
                <use width="19.1" height="19.1" transform="translate(317.3 455.4) rotate(2.2) scale(1.2 -1.9)" xlink:href="#Dice_Map_1"/>
              </g>
            </g>
            <g>
              <rect class="cls-11" x="328.1" y="317.2" width="35.1" height="22.6" transform="translate(4.1 661.3) rotate(-87.8)"/>
              <g class="cls-5">
                <use width="19.1" height="19.1" transform="translate(333.7 345.7) rotate(2.2) scale(1.2 -1.9)" xlink:href="#Dice_Map_1"/>
              </g>
            </g>
            <g>
              <rect class="cls-11" x="416.3" y="220.3" width="35.1" height="22.6" transform="translate(185.7 656.2) rotate(-87.8)"/>
              <g class="cls-9">
                <use width="19.1" height="19.1" transform="translate(421.8 248.8) rotate(2.2) scale(1.2 -1.9)" xlink:href="#Dice_Map_1"/>
              </g>
            </g>
            <g>
              <rect class="cls-11" x="262.1" y="274.7" width="35.1" height="22.6" transform="translate(-16.9 554.5) rotate(-87.8)"/>
              <g class="cls-8">
                <use width="19.1" height="19.1" transform="translate(267.7 303.2) rotate(2.2) scale(1.2 -1.9)" xlink:href="#Dice_Map_1"/>
              </g>
            </g>
            <g>
              <rect class="cls-11" x="254.6" y="364.1" width="35.1" height="22.6" transform="translate(-113.5 632.9) rotate(-87.8)"/>
              <g class="cls-7">
                <use width="19.1" height="19.1" transform="translate(260.2 392.6) rotate(2.2) scale(1.2 -1.9)" xlink:href="#Dice_Map_1"/>
              </g>
            </g>
            <polygon class="cls-10" points="248.2 -12.4 317.1 14.9 129.9 488.1 1.9 430.8 248.2 -12.4"/>
          </g>
        </g>
      </g>
    </g>
  </g>
</svg>