<?xml version="1.0" encoding="UTF-8"?>
<svg xmlns="http://www.w3.org/2000/svg" xmlns:xlink="http://www.w3.org/1999/xlink" version="1.1" viewBox="0 0 512 512">
  <defs>
    <style>
      .cls-1 {
        fill: none;
      }

      .cls-2 {
        fill: #ff5154;
      }

      .cls-3 {
        clip-path: url(#clippath-1);
      }

      .cls-4 {
        clip-path: url(#clippath-3);
      }

      .cls-5 {
        clip-path: url(#clippath-4);
      }

      .cls-6 {
        clip-path: url(#clippath-2);
      }

      .cls-7 {
        clip-path: url(#clippath-7);
      }

      .cls-8 {
        clip-path: url(#clippath-6);
      }

      .cls-9 {
        clip-path: url(#clippath-5);
      }

      .cls-10 {
        fill: #d9f9a5;
      }

      .cls-11 {
        fill: #011627;
      }

      .cls-12 {
        clip-path: url(#clippath);
      }
    </style>
    <symbol id="Dice_Map_1" viewBox="0 0 19.1 19.1">
      <circle cx="9.5" cy="9.5" r="9.5"/>
    </symbol>
    <clipPath id="clippath">
      <rect class="cls-1" x="307.2" y="171.6" width="24.9" height="16.1" transform="translate(127.8 492.2) rotate(-87.8)"/>
    </clipPath>
    <clipPath id="clippath-1">
      <rect class="cls-1" x="316.8" y="229.5" width="24.9" height="16.1" transform="translate(79.2 557.4) rotate(-87.8)"/>
    </clipPath>
    <clipPath id="clippath-2">
      <rect class="cls-1" x="357.8" y="308.3" width="24.9" height="16.1" transform="translate(39.9 674.2) rotate(-87.8)"/>
    </clipPath>
    <clipPath id="clippath-3">
      <rect class="cls-1" x="301.4" y="382.9" width="24.9" height="16.1" transform="translate(-88.8 689.5) rotate(-87.8)"/>
    </clipPath>
    <clipPath id="clippath-4">
      <rect class="cls-1" x="313.1" y="305" width="24.9" height="16.1" transform="translate(.3 626.3) rotate(-87.8)"/>
    </clipPath>
    <clipPath id="clippath-5">
      <rect class="cls-1" x="375.7" y="236.2" width="24.9" height="16.1" transform="translate(129.2 622.6) rotate(-87.8)"/>
    </clipPath>
    <clipPath id="clippath-6">
      <rect class="cls-1" x="266.2" y="274.8" width="24.9" height="16.1" transform="translate(-14.7 550.4) rotate(-87.8)"/>
    </clipPath>
    <clipPath id="clippath-7">
      <rect class="cls-1" x="260.9" y="338.3" width="24.9" height="16.1" transform="translate(-83.2 606.1) rotate(-87.8)"/>
    </clipPath>
  </defs>
  <!-- Generator: Adobe Illustrator 28.7.1, SVG Export Plug-In . SVG Version: 1.2.0 Build 142)  -->
  <g>
    <g id="Layer_1">
      <g id="Layer_1-2" data-name="Layer_1">
        <ellipse class="cls-11" cx="256.7" cy="254" rx="256.7" ry="254"/>
        <path d="M512.7,677.9c.4,0,.7.3.7.7s-.3.7-.7.7-.7-.3-.7-.7.3-.7.7-.7Z"/>
      </g>
      <path class="cls-2" d="M316.3,92.3c92.8,36.7,138.3,141.7,101.6,234.5-36.7,92.8-141.7,138.3-234.5,101.6"/>
      <g>
        <rect class="cls-11" x="307.2" y="171.6" width="24.9" height="16.1" transform="translate(127.8 492.2) rotate(-87.8)"/>
        <g class="cls-12">
          <use width="19.1" height="19.1" transform="translate(311.2 191.8) rotate(2.2) scale(.8 -1.3)" xlink:href="#Dice_Map_1"/>
        </g>
      </g>
      <g>
        <rect class="cls-11" x="316.8" y="229.5" width="24.9" height="16.1" transform="translate(79.2 557.4) rotate(-87.8)"/>
        <g class="cls-3">
          <use width="19.1" height="19.1" transform="translate(320.8 249.7) rotate(2.2) scale(.8 -1.3)" xlink:href="#Dice_Map_1"/>
        </g>
      </g>
      <g>
        <rect class="cls-11" x="357.8" y="308.3" width="24.9" height="16.1" transform="translate(39.9 674.2) rotate(-87.8)"/>
        <g class="cls-6">
          <use width="19.1" height="19.1" transform="translate(361.8 328.6) rotate(2.2) scale(.8 -1.3)" xlink:href="#Dice_Map_1"/>
        </g>
      </g>
      <g>
        <rect class="cls-11" x="301.4" y="382.9" width="24.9" height="16.1" transform="translate(-88.8 689.5) rotate(-87.8)"/>
        <g class="cls-4">
          <use width="19.1" height="19.1" transform="translate(305.4 403.1) rotate(2.2) scale(.8 -1.3)" xlink:href="#Dice_Map_1"/>
        </g>
      </g>
      <g>
        <rect class="cls-11" x="313.1" y="305" width="24.9" height="16.1" transform="translate(.3 626.3) rotate(-87.8)"/>
        <g class="cls-5">
          <use width="19.1" height="19.1" transform="translate(317.1 325.2) rotate(2.2) scale(.8 -1.3)" xlink:href="#Dice_Map_1"/>
        </g>
      </g>
      <g>
        <rect class="cls-11" x="375.7" y="236.2" width="24.9" height="16.1" transform="translate(129.2 622.6) rotate(-87.8)"/>
        <g class="cls-9">
          <use width="19.1" height="19.1" transform="translate(379.6 256.4) rotate(2.2) scale(.8 -1.3)" xlink:href="#Dice_Map_1"/>
        </g>
      </g>
      <g>
        <rect class="cls-11" x="266.2" y="274.8" width="24.9" height="16.1" transform="translate(-14.7 550.4) rotate(-87.8)"/>
        <g class="cls-8">
          <use width="19.1" height="19.1" transform="translate(270.2 295.1) rotate(2.2) scale(.8 -1.3)" xlink:href="#Dice_Map_1"/>
        </g>
      </g>
      <g>
        <rect class="cls-11" x="260.9" y="338.3" width="24.9" height="16.1" transform="translate(-83.2 606.1) rotate(-87.8)"/>
        <g class="cls-7">
          <use width="19.1" height="19.1" transform="translate(264.8 358.5) rotate(2.2) scale(.8 -1.3)" xlink:href="#Dice_Map_1"/>
        </g>
      </g>
      <polyline class="cls-10" points="81.5 385.6 256.3 70.9 305.3 90.3 172.4 426.3 81.5 385.6"/>
    </g>
  </g>
</svg>